<svg id="Layer_1" data-name="Layer 1" xmlns="http://www.w3.org/2000/svg" viewBox="0 0 500 500"><defs><style>.cls-1{fill:#afafaf;}.cls-2{fill:#3a3a3a;}.cls-3{fill:#2d2d2d;}.cls-4{fill:#eaeaea;}.cls-5{fill:#cecece;}.cls-6{fill:#934c12;}.cls-7{fill:#fcd32b;}.cls-8{fill:#e51c5a;}.cls-9{fill:#939393;}.cls-10{fill:#c60c58;}.cls-11{fill:none;stroke:#000;stroke-linecap:round;stroke-linejoin:round;stroke-width:15px;}</style></defs><title>lighthouse</title><rect class="cls-1" x="186.25" y="144.73" width="32" height="32"/><path class="cls-2" d="M128.9,473.15a48.4,48.4,0,0,0,40.35-21.64h0a48.43,48.43,0,0,0,80.69,0h0a48.43,48.43,0,0,0,80.69,0h0a48.37,48.37,0,0,0,53.35,19.85l-14.49-47.49a14.77,14.77,0,0,0-14.12-10.45h-211a14.77,14.77,0,0,0-14.12,10.45L115.9,471.36A48.12,48.12,0,0,0,128.9,473.15Z"/><path class="cls-3" d="M369.61,423.87a14.77,14.77,0,0,0-14.12-10.45h-36a14.77,14.77,0,0,1,14.12,10.45l13,42.61a48.23,48.23,0,0,0,37.49,4.88Z"/><polygon class="cls-4" points="326.55 188.76 173.45 188.76 153.49 413.42 346.51 413.42 326.55 188.76"/><polygon class="cls-5" points="326.55 188.76 290.55 188.76 310.51 413.42 346.51 413.42 326.55 188.76"/><path class="cls-6" d="M250,346.4h0a27.68,27.68,0,0,1,27.68,27.68v39.34a0,0,0,0,1,0,0H222.32a0,0,0,0,1,0,0V374.08A27.68,27.68,0,0,1,250,346.4Z"/><polygon class="cls-7" points="250 79.21 203.2 79.21 203.2 144.73 250 144.73 296.8 144.73 296.8 79.21 250 79.21"/><path class="cls-8" d="M250,41.94c-47.26,0-61.48,37.27-61.48,37.27h123S297.26,41.94,250,41.94Z"/><rect class="cls-9" x="277.75" y="144.73" width="36" height="44.03"/><path class="cls-10" d="M250,41.94a78.69,78.69,0,0,0-18,2C265,51.7,275.48,79.21,275.48,79.21h36S297.26,41.94,250,41.94Z"/><path class="cls-11" d="M492.17,451.51a48.43,48.43,0,0,1-80.69,0h0a48.43,48.43,0,0,1-80.69,0h0a48.43,48.43,0,0,1-80.69,0h0a48.43,48.43,0,0,1-80.69,0h0a48.43,48.43,0,0,1-80.69,0h0a48.43,48.43,0,0,1-80.69,0"/><rect class="cls-11" x="186.25" y="144.73" width="127.5" height="44.03"/><path class="cls-11" d="M250,346.4h0a27.68,27.68,0,0,1,27.68,27.68v39.34a0,0,0,0,1,0,0H222.32a0,0,0,0,1,0,0V374.08A27.68,27.68,0,0,1,250,346.4Z"/><rect class="cls-11" x="250" y="79.21" width="46.8" height="65.53"/><rect class="cls-11" x="203.2" y="79.21" width="46.8" height="65.53"/><path class="cls-11" d="M250,41.94c-47.26,0-61.48,37.27-61.48,37.27h123S297.26,41.94,250,41.94Z"/><line class="cls-11" x1="250" y1="41.94" x2="250" y2="26.85"/><path class="cls-11" d="M128.9,473.15a48.4,48.4,0,0,0,40.35-21.64h0a48.43,48.43,0,0,0,80.69,0h0a48.43,48.43,0,0,0,80.69,0h0a48.37,48.37,0,0,0,53.35,19.85l-14.49-47.49a14.77,14.77,0,0,0-14.12-10.45h-211a14.77,14.77,0,0,0-14.12,10.45L115.9,471.36A48.12,48.12,0,0,0,128.9,473.15Z"/><line class="cls-11" x1="31.57" y1="39.99" x2="145.86" y2="78.83"/><line class="cls-11" x1="31.57" y1="181.1" x2="145.86" y2="142.26"/><line class="cls-11" x1="468.43" y1="39.99" x2="354.14" y2="78.83"/><line class="cls-11" x1="468.43" y1="181.1" x2="354.14" y2="142.26"/><polygon class="cls-8" points="166.81 263.45 333.19 263.45 330.28 230.71 169.72 230.71 166.81 263.45"/><polygon class="cls-8" points="161.41 324.3 338.59 324.3 335.68 291.56 164.32 291.56 161.41 324.3"/><polygon class="cls-10" points="302.59 324.3 338.59 324.3 335.68 291.56 299.68 291.56 302.59 324.3"/><polygon class="cls-10" points="297.19 263.45 333.19 263.45 330.28 230.71 294.28 230.71 297.19 263.45"/><polygon class="cls-11" points="326.55 188.76 173.45 188.76 153.49 413.42 346.51 413.42 326.55 188.76"/></svg>